M48
; DRILL file KiCad 10.0.6 date 2026-09-18T19:39:25
; FORMAT={-:-/ absolute / metric / decimal}
; #@! TF.CreationDate,2026-09-18T19:39:25+05:30
; #@! TF.GenerationSoftware,Kicad,Pcbnew,10.0.6
; #@! TF.FileFunction,Plated,1,2,PTH
FMAT,2
METRIC
; #@! TA.AperFunction,Plated,PTH,ViaDrill
T1C0.300
; #@! TA.AperFunction,Plated,PTH,ComponentDrill
T2C0.500
; #@! TA.AperFunction,Plated,PTH,ComponentDrill
T3C0.600
; #@! TA.AperFunction,Plated,PTH,ComponentDrill
T4C0.700
; #@! TA.AperFunction,Plated,PTH,ComponentDrill
T5C0.800
; #@! TA.AperFunction,Plated,PTH,ComponentDrill
T6C1.400
%
G90
G05
T1
X140.5Y-105.0
X141.0Y-103.0
X142.0Y-100.0
T2
X131.5Y-95.0
X131.5Y-96.0
X151.625Y-96.0
X151.625Y-97.0
T3
X135.0Y-102.0
X135.0Y-103.5
X135.5Y-97.0
X135.5Y-98.5
T4
X146.5Y-95.96
X146.5Y-101.04
X149.0Y-97.96
X149.0Y-103.04
T5
X145.75Y-105.5
X148.25Y-105.5
X151.5Y-101.25
X151.5Y-103.75
T6
X132.42Y-107.5
X134.92Y-92.5
X142.58Y-107.5
X145.08Y-92.5
M30
