%TF.GenerationSoftware,KiCad,Pcbnew,10.0.6*%
%TF.CreationDate,2026-09-18T19:39:31+05:30*%
%TF.ProjectId,voltage_doubler,766f6c74-6167-4655-9f64-6f75626c6572,rev?*%
%TF.SameCoordinates,Original*%
%TF.FileFunction,Copper,L1,Top*%
%TF.FilePolarity,Positive*%
%FSLAX46Y46*%
G04 Gerber Fmt 4.6, Leading zero omitted, Abs format (unit mm)*
G04 Created by KiCad (PCBNEW 10.0.6) date 2026-09-18 19:39:31*
%MOMM*%
%LPD*%
G01*
G04 APERTURE LIST*
G04 Aperture macros list*
%AMRoundRect*
0 Rectangle with rounded corners*
0 $1 Rounding radius*
0 $2 $3 $4 $5 $6 $7 $8 $9 X,Y pos of 4 corners*
0 Add a 4 corners polygon primitive as box body*
4,1,4,$2,$3,$4,$5,$6,$7,$8,$9,$2,$3,0*
0 Add four circle primitives for the rounded corners*
1,1,$1+$1,$2,$3*
1,1,$1+$1,$4,$5*
1,1,$1+$1,$6,$7*
1,1,$1+$1,$8,$9*
0 Add four rect primitives between the rounded corners*
20,1,$1+$1,$2,$3,$4,$5,0*
20,1,$1+$1,$4,$5,$6,$7,0*
20,1,$1+$1,$6,$7,$8,$9,0*
20,1,$1+$1,$8,$9,$2,$3,0*%
G04 Aperture macros list end*
%TA.AperFunction,ComponentPad*%
%ADD10C,1.600000*%
%TD*%
%TA.AperFunction,ComponentPad*%
%ADD11RoundRect,0.250000X-0.350000X0.350000X-0.350000X-0.350000X0.350000X-0.350000X0.350000X0.350000X0*%
%TD*%
%TA.AperFunction,ComponentPad*%
%ADD12C,1.200000*%
%TD*%
%TA.AperFunction,ComponentPad*%
%ADD13RoundRect,0.250001X-1.149999X-1.149999X1.149999X-1.149999X1.149999X1.149999X-1.149999X1.149999X0*%
%TD*%
%TA.AperFunction,ComponentPad*%
%ADD14C,2.800000*%
%TD*%
%TA.AperFunction,ComponentPad*%
%ADD15C,1.400000*%
%TD*%
%TA.AperFunction,SMDPad,CuDef*%
%ADD16RoundRect,0.150000X-0.825000X-0.150000X0.825000X-0.150000X0.825000X0.150000X-0.825000X0.150000X0*%
%TD*%
%TA.AperFunction,ComponentPad*%
%ADD17R,0.850000X0.850000*%
%TD*%
%TA.AperFunction,ComponentPad*%
%ADD18C,0.850000*%
%TD*%
%TA.AperFunction,ComponentPad*%
%ADD19RoundRect,0.250001X1.149999X1.149999X-1.149999X1.149999X-1.149999X-1.149999X1.149999X-1.149999X0*%
%TD*%
%TA.AperFunction,ViaPad*%
%ADD20C,0.600000*%
%TD*%
%TA.AperFunction,Conductor*%
%ADD21C,0.200000*%
%TD*%
G04 APERTURE END LIST*
D10*
%TO.P,C2,1*%
%TO.N,Net-(U1-CONT)*%
X145750000Y-105500000D03*
%TO.P,C2,2*%
%TO.N,GND*%
X148250000Y-105500000D03*
%TD*%
D11*
%TO.P,C4,1*%
%TO.N,Net-(D2-K)*%
X135500000Y-97000000D03*
D12*
%TO.P,C4,2*%
%TO.N,GND*%
X135500000Y-98500000D03*
%TD*%
D13*
%TO.P,D2,1,K_1*%
%TO.N,Net-(D2-K)*%
X134920000Y-92500000D03*
D14*
%TO.P,D2,2,A_2*%
%TO.N,Net-(D1-A)*%
X145080000Y-92500000D03*
%TD*%
D15*
%TO.P,R2,1*%
%TO.N,Net-(U1-DISCH)*%
X149000000Y-97960000D03*
%TO.P,R2,2*%
%TO.N,Net-(U1-THRES)*%
X149000000Y-103040000D03*
%TD*%
%TO.P,R1,1*%
%TO.N,Net-(D1-A)*%
X146500000Y-95960000D03*
%TO.P,R1,2*%
%TO.N,Net-(U1-DISCH)*%
X146500000Y-101040000D03*
%TD*%
D16*
%TO.P,U1,1,GND_1*%
%TO.N,GND*%
X139025000Y-99595000D03*
%TO.P,U1,2,TRIG_2*%
%TO.N,Net-(U1-THRES)*%
X139025000Y-100865000D03*
%TO.P,U1,3,OUT_3*%
%TO.N,Net-(U1-OUT)*%
X139025000Y-102135000D03*
%TO.P,U1,4,~{RST}_4*%
%TO.N,Net-(D1-A)*%
X139025000Y-103405000D03*
%TO.P,U1,5,CONT_5*%
%TO.N,Net-(U1-CONT)*%
X143975000Y-103405000D03*
%TO.P,U1,6,THRES_6*%
%TO.N,Net-(U1-THRES)*%
X143975000Y-102135000D03*
%TO.P,U1,7,DISCH_7*%
%TO.N,Net-(U1-DISCH)*%
X143975000Y-100865000D03*
%TO.P,U1,8,VCC_8*%
%TO.N,Net-(D1-A)*%
X143975000Y-99595000D03*
%TD*%
D17*
%TO.P,J2,1,Pin_1_1*%
%TO.N,GND*%
X131500000Y-96000000D03*
D18*
%TO.P,J2,2,Pin_2_2*%
%TO.N,Net-(D2-K)*%
X131500000Y-95000000D03*
%TD*%
D11*
%TO.P,C3,1*%
%TO.N,Net-(U1-OUT)*%
X135000000Y-102000000D03*
D12*
%TO.P,C3,2*%
%TO.N,Net-(D1-A)*%
X135000000Y-103500000D03*
%TD*%
D10*
%TO.P,C1,1*%
%TO.N,Net-(U1-THRES)*%
X151500000Y-101250000D03*
%TO.P,C1,2*%
%TO.N,GND*%
X151500000Y-103750000D03*
%TD*%
D19*
%TO.P,D1,1,K_1*%
%TO.N,Net-(D1-A)*%
X142580000Y-107500000D03*
D14*
%TO.P,D1,2,A_2*%
X132420000Y-107500000D03*
%TD*%
D17*
%TO.P,J1,1,Pin_1_1*%
%TO.N,Net-(D1-A)*%
X151625000Y-96000000D03*
D18*
%TO.P,J1,2,Pin_2_2*%
%TO.N,GND*%
X151625000Y-97000000D03*
%TD*%
D20*
%TO.N,GND*%
X140500000Y-105000000D03*
%TO.N,Net-(D1-A)*%
X141000000Y-103000000D03*
X142000000Y-100000000D03*
%TD*%
%TO.N,Net-(U1-THRES)*%
D21*
X141269999Y-102135000D02*
X143975000Y-102135000D01*
X149000000Y-103040000D02*
X149710000Y-103040000D01*
X139999999Y-100865000D02*
X141269999Y-102135000D01*
X149710000Y-103040000D02*
X151500000Y-101250000D01*
X139025000Y-100865000D02*
X139999999Y-100865000D01*
X146040000Y-103040000D02*
X149000000Y-103040000D01*
X145135000Y-102135000D02*
X146040000Y-103040000D01*
X143975000Y-102135000D02*
X145135000Y-102135000D01*
%TO.N,GND*%
X147150000Y-106600000D02*
X148250000Y-105500000D01*
X140500000Y-105000000D02*
X143500000Y-105000000D01*
X149250000Y-104500000D02*
X148250000Y-105500000D01*
X143500000Y-105000000D02*
X145100000Y-106600000D01*
X151500000Y-103750000D02*
X150750000Y-104500000D01*
X136595000Y-99595000D02*
X135500000Y-98500000D01*
X139025000Y-99595000D02*
X136595000Y-99595000D01*
X150750000Y-104500000D02*
X149250000Y-104500000D01*
X145100000Y-106600000D02*
X147150000Y-106600000D01*
%TO.N,Net-(U1-CONT)*%
X143975000Y-103725000D02*
X143975000Y-103405000D01*
X145750000Y-105500000D02*
X143975000Y-103725000D01*
%TO.N,Net-(D1-A)*%
X135000000Y-103500000D02*
X138930000Y-103500000D01*
X138930000Y-103500000D02*
X139025000Y-103405000D01*
X141000000Y-103000000D02*
X140595000Y-103405000D01*
X140595000Y-103405000D02*
X139025000Y-103405000D01*
X143975000Y-99595000D02*
X142405000Y-99595000D01*
X142405000Y-99595000D02*
X142000000Y-100000000D01*
X143975000Y-99595000D02*
X146500000Y-97070000D01*
X146500000Y-97070000D02*
X146500000Y-95960000D01*
%TO.N,Net-(U1-OUT)*%
X135635000Y-102135000D02*
X139025000Y-102135000D01*
X135000000Y-102000000D02*
X135500000Y-102000000D01*
X135500000Y-102000000D02*
X135635000Y-102135000D01*
%TO.N,Net-(D2-K)*%
X134920000Y-92500000D02*
X135000000Y-92500000D01*
%TO.N,Net-(U1-DISCH)*%
X143975000Y-100865000D02*
X146325000Y-100865000D01*
X146500000Y-101040000D02*
X146500000Y-100460000D01*
X146325000Y-100865000D02*
X146500000Y-101040000D01*
X146500000Y-100460000D02*
X149000000Y-97960000D01*
%TD*%
%TA.AperFunction,Conductor*%
%TO.N,GND*%
G36*
X133347467Y-90520185D02*
G01*
X133393222Y-90572989D01*
X133403166Y-90642147D01*
X133374141Y-90705703D01*
X133345528Y-90730036D01*
X133311744Y-90750874D01*
X133301343Y-90757290D01*
X133177289Y-90881344D01*
X133177286Y-90881348D01*
X133085187Y-91030662D01*
X133085186Y-91030664D01*
X133030001Y-91197203D01*
X133030000Y-91197204D01*
X133019500Y-91299984D01*
X133019500Y-93700015D01*
X133030000Y-93802795D01*
X133030001Y-93802796D01*
X133085186Y-93969335D01*
X133085187Y-93969337D01*
X133177286Y-94118651D01*
X133177289Y-94118655D01*
X133301344Y-94242710D01*
X133301348Y-94242713D01*
X133450662Y-94334812D01*
X133450664Y-94334813D01*
X133450666Y-94334814D01*
X133617203Y-94389999D01*
X133719992Y-94400500D01*
X133719997Y-94400500D01*
X136120003Y-94400500D01*
X136120008Y-94400500D01*
X136222797Y-94389999D01*
X136389334Y-94334814D01*
X136538655Y-94242711D01*
X136662711Y-94118655D01*
X136754814Y-93969334D01*
X136809999Y-93802797D01*
X136820500Y-93700008D01*
X136820500Y-91299992D01*
X136809999Y-91197203D01*
X136754814Y-91030666D01*
X136684333Y-90916400D01*
X136662713Y-90881348D01*
X136662710Y-90881344D01*
X136538656Y-90757290D01*
X136538655Y-90757289D01*
X136494473Y-90730037D01*
X136447751Y-90678091D01*
X136436528Y-90609128D01*
X136464372Y-90545046D01*
X136522441Y-90506190D01*
X136559572Y-90500500D01*
X144317585Y-90500500D01*
X144384624Y-90520185D01*
X144430379Y-90572989D01*
X144440323Y-90642147D01*
X144411298Y-90705703D01*
X144365037Y-90739061D01*
X144237638Y-90791830D01*
X144237623Y-90791837D01*
X144021873Y-90916400D01*
X143824225Y-91068060D01*
X143824218Y-91068066D01*
X143648066Y-91244218D01*
X143648060Y-91244225D01*
X143496400Y-91441873D01*
X143371837Y-91657623D01*
X143371830Y-91657638D01*
X143276498Y-91887792D01*
X143212017Y-92128438D01*
X143179501Y-92375424D01*
X143179500Y-92375441D01*
X143179500Y-92624558D01*
X143179501Y-92624575D01*
X143212017Y-92871561D01*
X143276498Y-93112207D01*
X143371830Y-93342361D01*
X143371837Y-93342376D01*
X143496400Y-93558126D01*
X143648060Y-93755774D01*
X143648066Y-93755781D01*
X143824218Y-93931933D01*
X143824225Y-93931939D01*
X144021873Y-94083599D01*
X144237623Y-94208162D01*
X144237638Y-94208169D01*
X144336825Y-94249253D01*
X144467793Y-94303502D01*
X144708435Y-94367982D01*
X144955435Y-94400500D01*
X144955442Y-94400500D01*
X145204558Y-94400500D01*
X145204565Y-94400500D01*
X145451565Y-94367982D01*
X145692207Y-94303502D01*
X145922373Y-94208164D01*
X146138127Y-94083599D01*
X146335776Y-93931938D01*
X146511938Y-93755776D01*
X146663599Y-93558127D01*
X146788164Y-93342373D01*
X146883502Y-93112207D01*
X146947982Y-92871565D01*
X146980500Y-92624565D01*
X146980500Y-92375435D01*
X146947982Y-92128435D01*
X146883502Y-91887793D01*
X146788164Y-91657627D01*
X146663599Y-91441873D01*
X146511938Y-91244224D01*
X146511933Y-91244218D01*
X146335781Y-91068066D01*
X146335774Y-91068060D01*
X146138126Y-90916400D01*
X145922376Y-90791837D01*
X145922361Y-90791830D01*
X145794963Y-90739061D01*
X145740559Y-90695220D01*
X145718494Y-90628926D01*
X145735773Y-90561227D01*
X145786910Y-90513616D01*
X145842415Y-90500500D01*
X152875500Y-90500500D01*
X152942539Y-90520185D01*
X152988294Y-90572989D01*
X152999500Y-90624500D01*
X152999500Y-100873575D01*
X152979815Y-100940614D01*
X152927011Y-100986369D01*
X152857853Y-100996313D01*
X152794297Y-100967288D01*
X152757569Y-100911894D01*
X152725913Y-100814468D01*
X152705220Y-100750781D01*
X152705218Y-100750778D01*
X152705218Y-100750776D01*
X152653516Y-100649306D01*
X152612287Y-100568390D01*
X152570077Y-100510292D01*
X152491971Y-100402786D01*
X152347213Y-100258028D01*
X152181613Y-100137715D01*
X152181612Y-100137714D01*
X152181610Y-100137713D01*
X152124653Y-100108691D01*
X151999223Y-100044781D01*
X151804534Y-99981522D01*
X151629995Y-99953878D01*
X151602352Y-99949500D01*
X151397648Y-99949500D01*
X151373329Y-99953351D01*
X151195465Y-99981522D01*
X151000776Y-100044781D01*
X150818386Y-100137715D01*
X150652786Y-100258028D01*
X150508028Y-100402786D01*
X150387715Y-100568386D01*
X150294781Y-100750776D01*
X150231522Y-100945465D01*
X150199500Y-101147648D01*
X150199500Y-101352351D01*
X150231522Y-101554534D01*
X150236173Y-101568848D01*
X150238165Y-101638690D01*
X150205921Y-101694842D01*
X149853705Y-102047058D01*
X149792382Y-102080543D01*
X149722690Y-102075559D01*
X149693141Y-102059697D01*
X149629199Y-102013240D01*
X149460836Y-101927454D01*
X149281118Y-101869059D01*
X149094486Y-101839500D01*
X149094481Y-101839500D01*
X148905519Y-101839500D01*
X148905514Y-101839500D01*
X148718881Y-101869059D01*
X148539163Y-101927454D01*
X148370800Y-102013240D01*
X148306861Y-102059695D01*
X148217927Y-102124310D01*
X148217925Y-102124312D01*
X148217924Y-102124312D01*
X148084312Y-102257924D01*
X148084312Y-102257925D01*
X148084310Y-102257927D01*
X148001337Y-102372129D01*
X147989526Y-102388386D01*
X147934196Y-102431051D01*
X147889208Y-102439500D01*
X146860589Y-102439500D01*
X146793550Y-102419815D01*
X146747795Y-102367011D01*
X146737851Y-102297853D01*
X146766876Y-102234297D01*
X146822270Y-102197569D01*
X146850945Y-102188251D01*
X146960832Y-102152547D01*
X147129199Y-102066760D01*
X147282073Y-101955690D01*
X147415690Y-101822073D01*
X147526760Y-101669199D01*
X147612547Y-101500832D01*
X147670940Y-101321118D01*
X147693078Y-101181344D01*
X147700500Y-101134486D01*
X147700500Y-100945513D01*
X147670940Y-100758881D01*
X147626395Y-100621789D01*
X147612547Y-100579168D01*
X147612545Y-100579165D01*
X147612545Y-100579163D01*
X147524548Y-100406460D01*
X147526588Y-100405420D01*
X147510833Y-100347090D01*
X147531974Y-100280495D01*
X147547118Y-100262115D01*
X148639169Y-99170064D01*
X148700490Y-99136581D01*
X148746246Y-99135274D01*
X148905514Y-99160500D01*
X148905519Y-99160500D01*
X149094486Y-99160500D01*
X149281118Y-99130940D01*
X149331776Y-99114480D01*
X149460832Y-99072547D01*
X149629199Y-98986760D01*
X149782073Y-98875690D01*
X149915690Y-98742073D01*
X150026760Y-98589199D01*
X150112547Y-98420832D01*
X150170940Y-98241118D01*
X150200500Y-98054486D01*
X150200500Y-97865513D01*
X150170940Y-97678881D01*
X150129232Y-97550520D01*
X150112547Y-97499168D01*
X150112545Y-97499165D01*
X150112545Y-97499163D01*
X150062019Y-97400001D01*
X150026760Y-97330801D01*
X149915690Y-97177927D01*
X149782073Y-97044310D01*
X149629199Y-96933240D01*
X149621260Y-96929195D01*
X149460836Y-96847454D01*
X149281118Y-96789059D01*
X149094486Y-96759500D01*
X149094481Y-96759500D01*
X148905519Y-96759500D01*
X148905514Y-96759500D01*
X148718881Y-96789059D01*
X148539163Y-96847454D01*
X148370800Y-96933240D01*
X148319554Y-96970473D01*
X148217927Y-97044310D01*
X148217925Y-97044312D01*
X148217924Y-97044312D01*
X148084312Y-97177924D01*
X148084312Y-97177925D01*
X148084310Y-97177927D01*
X148036610Y-97243579D01*
X147973240Y-97330800D01*
X147887454Y-97499163D01*
X147829059Y-97678881D01*
X147799500Y-97865513D01*
X147799500Y-98054486D01*
X147824725Y-98213751D01*
X147815770Y-98283045D01*
X147789933Y-98320830D01*
X146273642Y-99837121D01*
X146222869Y-99865569D01*
X146223514Y-99867555D01*
X146039165Y-99927454D01*
X145870800Y-100013240D01*
X145800248Y-100064500D01*
X145717927Y-100124310D01*
X145717925Y-100124312D01*
X145717924Y-100124312D01*
X145614056Y-100228181D01*
X145552733Y-100261666D01*
X145526375Y-100264500D01*
X145465907Y-100264500D01*
X145398868Y-100244815D01*
X145353113Y-100192011D01*
X145343169Y-100122853D01*
X145359175Y-100077380D01*
X145397106Y-100013240D01*
X145401744Y-100005398D01*
X145441354Y-99869060D01*
X145447597Y-99847573D01*
X145447598Y-99847567D01*
X145450499Y-99810701D01*
X145450500Y-99810694D01*
X145450500Y-99379306D01*
X145447598Y-99342431D01*
X145432541Y-99290606D01*
X145401745Y-99184606D01*
X145401744Y-99184602D01*
X145388602Y-99162379D01*
X145371421Y-99094655D01*
X145393581Y-99028393D01*
X145407648Y-99011585D01*
X146858506Y-97560728D01*
X146858511Y-97560724D01*
X146868714Y-97550520D01*
X146868716Y-97550520D01*
X146980520Y-97438716D01*
X147042824Y-97330801D01*
X147059577Y-97301785D01*
X147100500Y-97149058D01*
X147100500Y-97070791D01*
X147120185Y-97003752D01*
X147151612Y-96970475D01*
X147282073Y-96875690D01*
X147415690Y-96742073D01*
X147526760Y-96589199D01*
X147612547Y-96420832D01*
X147670940Y-96241118D01*
X147680407Y-96181344D01*
X147700500Y-96054486D01*
X147700500Y-95865513D01*
X147670940Y-95678881D01*
X147633003Y-95562125D01*
X147621634Y-95527135D01*
X150699500Y-95527135D01*
X150699500Y-96472870D01*
X150699501Y-96472876D01*
X150705908Y-96532483D01*
X150756202Y-96667328D01*
X150756206Y-96667335D01*
X150842452Y-96782544D01*
X150842455Y-96782547D01*
X150957664Y-96868793D01*
X150957671Y-96868797D01*
X151092517Y-96919091D01*
X151092516Y-96919091D01*
X151099444Y-96919835D01*
X151152127Y-96925500D01*
X152097872Y-96925499D01*
X152157483Y-96919091D01*
X152292331Y-96868796D01*
X152407546Y-96782546D01*
X152493796Y-96667331D01*
X152544091Y-96532483D01*
X152550500Y-96472873D01*
X152550499Y-95527128D01*
X152544091Y-95467517D01*
X152533226Y-95438387D01*
X152493797Y-95332671D01*
X152493793Y-95332664D01*
X152407547Y-95217455D01*
X152407544Y-95217452D01*
X152292335Y-95131206D01*
X152292328Y-95131202D01*
X152157482Y-95080908D01*
X152157483Y-95080908D01*
X152097883Y-95074501D01*
X152097881Y-95074500D01*
X152097873Y-95074500D01*
X152097864Y-95074500D01*
X151152129Y-95074500D01*
X151152123Y-95074501D01*
X151092516Y-95080908D01*
X150957671Y-95131202D01*
X150957664Y-95131206D01*
X150842455Y-95217452D01*
X150842452Y-95217455D01*
X150756206Y-95332664D01*
X150756202Y-95332671D01*
X150705908Y-95467517D01*
X150701354Y-95509881D01*
X150699501Y-95527123D01*
X150699500Y-95527135D01*
X147621634Y-95527135D01*
X147612545Y-95499163D01*
X147567290Y-95410347D01*
X147526760Y-95330801D01*
X147415690Y-95177927D01*
X147282073Y-95044310D01*
X147129199Y-94933240D01*
X146960836Y-94847454D01*
X146781118Y-94789059D01*
X146594486Y-94759500D01*
X146594481Y-94759500D01*
X146405519Y-94759500D01*
X146405514Y-94759500D01*
X146218881Y-94789059D01*
X146039163Y-94847454D01*
X145870800Y-94933240D01*
X145783579Y-94996610D01*
X145717927Y-95044310D01*
X145717925Y-95044312D01*
X145717924Y-95044312D01*
X145584312Y-95177924D01*
X145584312Y-95177925D01*
X145584310Y-95177927D01*
X145555593Y-95217452D01*
X145473240Y-95330800D01*
X145387454Y-95499163D01*
X145329059Y-95678881D01*
X145299500Y-95865513D01*
X145299500Y-96054486D01*
X145329059Y-96241118D01*
X145387454Y-96420836D01*
X145473240Y-96589199D01*
X145584310Y-96742073D01*
X145584312Y-96742075D01*
X145693819Y-96851582D01*
X145727304Y-96912905D01*
X145722320Y-96982597D01*
X145693819Y-97026944D01*
X143962584Y-98758181D01*
X143901261Y-98791666D01*
X143874903Y-98794500D01*
X143084298Y-98794500D01*
X143047432Y-98797401D01*
X143047426Y-98797402D01*
X142889606Y-98843254D01*
X142889603Y-98843255D01*
X142748137Y-98926917D01*
X142748129Y-98926923D01*
X142716874Y-98958180D01*
X142655552Y-98991666D01*
X142629192Y-98994500D01*
X142325940Y-98994500D01*
X142285019Y-99005464D01*
X142285019Y-99005465D01*
X142262202Y-99011579D01*
X142173214Y-99035423D01*
X142173209Y-99035426D01*
X142036290Y-99114475D01*
X142036282Y-99114481D01*
X141985336Y-99165427D01*
X141924013Y-99198911D01*
X141921848Y-99199362D01*
X141766508Y-99230261D01*
X141766498Y-99230264D01*
X141620827Y-99290602D01*
X141620814Y-99290609D01*
X141489711Y-99378210D01*
X141489707Y-99378213D01*
X141378213Y-99489707D01*
X141378210Y-99489711D01*
X141290609Y-99620814D01*
X141290602Y-99620827D01*
X141230264Y-99766498D01*
X141230261Y-99766510D01*
X141199500Y-99921153D01*
X141199500Y-100078846D01*
X141230261Y-100233489D01*
X141230264Y-100233501D01*
X141290602Y-100379172D01*
X141290609Y-100379185D01*
X141378210Y-100510288D01*
X141378213Y-100510292D01*
X141489707Y-100621786D01*
X141489711Y-100621789D01*
X141620814Y-100709390D01*
X141620827Y-100709397D01*
X141766498Y-100769735D01*
X141766503Y-100769737D01*
X141921153Y-100800499D01*
X141921156Y-100800500D01*
X141921158Y-100800500D01*
X142078844Y-100800500D01*
X142078845Y-100800499D01*
X142233497Y-100769737D01*
X142328048Y-100730572D01*
X142397517Y-100723104D01*
X142459996Y-100754379D01*
X142495648Y-100814468D01*
X142499500Y-100845134D01*
X142499500Y-101080701D01*
X142502401Y-101117567D01*
X142502402Y-101117573D01*
X142548254Y-101275393D01*
X142548257Y-101275400D01*
X142590825Y-101347380D01*
X142608008Y-101415104D01*
X142585848Y-101481366D01*
X142531381Y-101525129D01*
X142484093Y-101534500D01*
X141570096Y-101534500D01*
X141503057Y-101514815D01*
X141482415Y-101498181D01*
X140487589Y-100503355D01*
X140487587Y-100503352D01*
X140478316Y-100494081D01*
X140455955Y-100461175D01*
X140455716Y-100461317D01*
X140453460Y-100457503D01*
X140452189Y-100455632D01*
X140451745Y-100454606D01*
X140451744Y-100454602D01*
X140425840Y-100410801D01*
X140368083Y-100313138D01*
X140368076Y-100313129D01*
X140251870Y-100196923D01*
X140251862Y-100196917D01*
X140129089Y-100124310D01*
X140110398Y-100113256D01*
X140110397Y-100113255D01*
X140110396Y-100113255D01*
X140110393Y-100113254D01*
X139952573Y-100067402D01*
X139952567Y-100067401D01*
X139915701Y-100064500D01*
X139915694Y-100064500D01*
X138134306Y-100064500D01*
X138134298Y-100064500D01*
X138097432Y-100067401D01*
X138097426Y-100067402D01*
X137939606Y-100113254D01*
X137939603Y-100113255D01*
X137798137Y-100196917D01*
X137798129Y-100196923D01*
X137681923Y-100313129D01*
X137681917Y-100313137D01*
X137598255Y-100454603D01*
X137598254Y-100454606D01*
X137552402Y-100612426D01*
X137552401Y-100612432D01*
X137549500Y-100649298D01*
X137549500Y-101080701D01*
X137552401Y-101117567D01*
X137552402Y-101117573D01*
X137598254Y-101275393D01*
X137598257Y-101275400D01*
X137640825Y-101347380D01*
X137658008Y-101415104D01*
X137635848Y-101481366D01*
X137581381Y-101525129D01*
X137534093Y-101534500D01*
X136191899Y-101534500D01*
X136124860Y-101514815D01*
X136079105Y-101462011D01*
X136074193Y-101449504D01*
X136034814Y-101330666D01*
X135942712Y-101181344D01*
X135818656Y-101057288D01*
X135669334Y-100965186D01*
X135502797Y-100910001D01*
X135502795Y-100910000D01*
X135400010Y-100899500D01*
X134599998Y-100899500D01*
X134599980Y-100899501D01*
X134497203Y-100910000D01*
X134497200Y-100910001D01*
X134330668Y-100965185D01*
X134330663Y-100965187D01*
X134181342Y-101057289D01*
X134057289Y-101181342D01*
X133965187Y-101330663D01*
X133965185Y-101330668D01*
X133958000Y-101352351D01*
X133910001Y-101497203D01*
X133910001Y-101497204D01*
X133910000Y-101497204D01*
X133899500Y-101599983D01*
X133899500Y-102400001D01*
X133899501Y-102400019D01*
X133910000Y-102502796D01*
X133910001Y-102502799D01*
X133965185Y-102669331D01*
X133965189Y-102669340D01*
X134050692Y-102807963D01*
X134069132Y-102875355D01*
X134055638Y-102929353D01*
X133980129Y-103077549D01*
X133926597Y-103242302D01*
X133917501Y-103299735D01*
X133899500Y-103413389D01*
X133899500Y-103586611D01*
X133926598Y-103757701D01*
X133980127Y-103922445D01*
X134058768Y-104076788D01*
X134160586Y-104216928D01*
X134283072Y-104339414D01*
X134423212Y-104441232D01*
X134577555Y-104519873D01*
X134742299Y-104573402D01*
X134913389Y-104600500D01*
X134913390Y-104600500D01*
X135086610Y-104600500D01*
X135086611Y-104600500D01*
X135257701Y-104573402D01*
X135422445Y-104519873D01*
X135576788Y-104441232D01*
X135716928Y-104339414D01*
X135839414Y-104216928D01*
X135886868Y-104151613D01*
X135942197Y-104108949D01*
X135987185Y-104100500D01*
X137810576Y-104100500D01*
X137873696Y-104117767D01*
X137939602Y-104156744D01*
X137981224Y-104168836D01*
X138097426Y-104202597D01*
X138097429Y-104202597D01*
X138097431Y-104202598D01*
X138134306Y-104205500D01*
X138134314Y-104205500D01*
X139915686Y-104205500D01*
X139915694Y-104205500D01*
X139952569Y-104202598D01*
X139952571Y-104202597D01*
X139952573Y-104202597D01*
X139994191Y-104190505D01*
X140110398Y-104156744D01*
X140251865Y-104073081D01*
X140283126Y-104041820D01*
X140344448Y-104008334D01*
X140370808Y-104005500D01*
X140508331Y-104005500D01*
X140508347Y-104005501D01*
X140515943Y-104005501D01*
X140674054Y-104005501D01*
X140674057Y-104005501D01*
X140826785Y-103964577D01*
X140899759Y-103922445D01*
X140963716Y-103885520D01*
X141014663Y-103834572D01*
X141075984Y-103801088D01*
X141078152Y-103800637D01*
X141078841Y-103800500D01*
X141078842Y-103800500D01*
X141233497Y-103769737D01*
X141379179Y-103709394D01*
X141510289Y-103621789D01*
X141621789Y-103510289D01*
X141709394Y-103379179D01*
X141769737Y-103233497D01*
X141800500Y-103078842D01*
X141800500Y-102921158D01*
X141800500Y-102921155D01*
X141800499Y-102921153D01*
X141793048Y-102883691D01*
X141799275Y-102814100D01*
X141842138Y-102758922D01*
X141908028Y-102735678D01*
X141914665Y-102735500D01*
X142484093Y-102735500D01*
X142551132Y-102755185D01*
X142596887Y-102807989D01*
X142606831Y-102877147D01*
X142590825Y-102922620D01*
X142548257Y-102994599D01*
X142548254Y-102994606D01*
X142502402Y-103152426D01*
X142502401Y-103152432D01*
X142499500Y-103189298D01*
X142499500Y-103620701D01*
X142502401Y-103657567D01*
X142502402Y-103657573D01*
X142548254Y-103815393D01*
X142548255Y-103815396D01*
X142631917Y-103956862D01*
X142631923Y-103956870D01*
X142748129Y-104073076D01*
X142748133Y-104073079D01*
X142748135Y-104073081D01*
X142889602Y-104156744D01*
X142931224Y-104168836D01*
X143047426Y-104202597D01*
X143047429Y-104202597D01*
X143047431Y-104202598D01*
X143084306Y-104205500D01*
X143554903Y-104205500D01*
X143621942Y-104225185D01*
X143642584Y-104241819D01*
X144455922Y-105055157D01*
X144489407Y-105116480D01*
X144486173Y-105181155D01*
X144481522Y-105195468D01*
X144449500Y-105397648D01*
X144449500Y-105602351D01*
X144466164Y-105707565D01*
X144457209Y-105776859D01*
X144412213Y-105830311D01*
X144345461Y-105850950D01*
X144278148Y-105832225D01*
X144256010Y-105814644D01*
X144198655Y-105757289D01*
X144198651Y-105757286D01*
X144049337Y-105665187D01*
X144049335Y-105665186D01*
X143949237Y-105632017D01*
X143882797Y-105610001D01*
X143882795Y-105610000D01*
X143780015Y-105599500D01*
X143780008Y-105599500D01*
X141379992Y-105599500D01*
X141379984Y-105599500D01*
X141277204Y-105610000D01*
X141277203Y-105610001D01*
X141110664Y-105665186D01*
X141110662Y-105665187D01*
X140961348Y-105757286D01*
X140961344Y-105757289D01*
X140837289Y-105881344D01*
X140837286Y-105881348D01*
X140745187Y-106030662D01*
X140745186Y-106030664D01*
X140690001Y-106197203D01*
X140690000Y-106197204D01*
X140679500Y-106299984D01*
X140679500Y-108700015D01*
X140690000Y-108802795D01*
X140690001Y-108802796D01*
X140745186Y-108969335D01*
X140745187Y-108969337D01*
X140837286Y-109118651D01*
X140837289Y-109118655D01*
X140961345Y-109242711D01*
X141005526Y-109269962D01*
X141052249Y-109321909D01*
X141063472Y-109390872D01*
X141035628Y-109454954D01*
X140977559Y-109493810D01*
X140940428Y-109499500D01*
X133182415Y-109499500D01*
X133115376Y-109479815D01*
X133069621Y-109427011D01*
X133059677Y-109357853D01*
X133088702Y-109294297D01*
X133134963Y-109260939D01*
X133262361Y-109208169D01*
X133262361Y-109208168D01*
X133262373Y-109208164D01*
X133478127Y-109083599D01*
X133675776Y-108931938D01*
X133851938Y-108755776D01*
X134003599Y-108558127D01*
X134128164Y-108342373D01*
X134223502Y-108112207D01*
X134287982Y-107871565D01*
X134320500Y-107624565D01*
X134320500Y-107375435D01*
X134287982Y-107128435D01*
X134223502Y-106887793D01*
X134147877Y-106705218D01*
X134128169Y-106657638D01*
X134128162Y-106657623D01*
X134003599Y-106441873D01*
X133851939Y-106244225D01*
X133851933Y-106244218D01*
X133675781Y-106068066D01*
X133675774Y-106068060D01*
X133478126Y-105916400D01*
X133262376Y-105791837D01*
X133262361Y-105791830D01*
X133032207Y-105696498D01*
X132791561Y-105632017D01*
X132544575Y-105599501D01*
X132544570Y-105599500D01*
X132544565Y-105599500D01*
X132295435Y-105599500D01*
X132295429Y-105599500D01*
X132295424Y-105599501D01*
X132048438Y-105632017D01*
X131807792Y-105696498D01*
X131577638Y-105791830D01*
X131577623Y-105791837D01*
X131361873Y-105916400D01*
X131164225Y-106068060D01*
X131164218Y-106068066D01*
X130988066Y-106244218D01*
X130988060Y-106244225D01*
X130836400Y-106441873D01*
X130731887Y-106622897D01*
X130681320Y-106671112D01*
X130612713Y-106684336D01*
X130547849Y-106658368D01*
X130507320Y-106601454D01*
X130500500Y-106560897D01*
X130500500Y-96599983D01*
X134399500Y-96599983D01*
X134399500Y-97400001D01*
X134399501Y-97400019D01*
X134410000Y-97502796D01*
X134410001Y-97502799D01*
X134465185Y-97669331D01*
X134465187Y-97669336D01*
X134471075Y-97678882D01*
X134557288Y-97818656D01*
X134681344Y-97942712D01*
X134830666Y-98034814D01*
X134997203Y-98089999D01*
X135099991Y-98100500D01*
X135900008Y-98100499D01*
X135900016Y-98100498D01*
X135900019Y-98100498D01*
X135956302Y-98094748D01*
X136002797Y-98089999D01*
X136169334Y-98034814D01*
X136318656Y-97942712D01*
X136442712Y-97818656D01*
X136534814Y-97669334D01*
X136589999Y-97502797D01*
X136600500Y-97400009D01*
X136600499Y-96599992D01*
X136599396Y-96589199D01*
X136589999Y-96497203D01*
X136589998Y-96497200D01*
X136564692Y-96420832D01*
X136534814Y-96330666D01*
X136442712Y-96181344D01*
X136318656Y-96057288D01*
X136169334Y-95965186D01*
X136002797Y-95910001D01*
X136002795Y-95910000D01*
X135900010Y-95899500D01*
X135099998Y-95899500D01*
X135099980Y-95899501D01*
X134997203Y-95910000D01*
X134997200Y-95910001D01*
X134830668Y-95965185D01*
X134830663Y-95965187D01*
X134681342Y-96057289D01*
X134557289Y-96181342D01*
X134465187Y-96330663D01*
X134465186Y-96330666D01*
X134410001Y-96497203D01*
X134410001Y-96497204D01*
X134410000Y-96497204D01*
X134399500Y-96599983D01*
X130500500Y-96599983D01*
X130500500Y-95578771D01*
X130520185Y-95511732D01*
X130572989Y-95465977D01*
X130642147Y-95456033D01*
X130705703Y-95485058D01*
X130727599Y-95509877D01*
X130739127Y-95527129D01*
X130781118Y-95589974D01*
X130910024Y-95718880D01*
X130910032Y-95718886D01*
X131061608Y-95820166D01*
X131061612Y-95820168D01*
X131230037Y-95889931D01*
X131230042Y-95889933D01*
X131230046Y-95889933D01*
X131230047Y-95889934D01*
X131408843Y-95925500D01*
X131408846Y-95925500D01*
X131591156Y-95925500D01*
X131721862Y-95899500D01*
X131769958Y-95889933D01*
X131938389Y-95820167D01*
X131938391Y-95820166D01*
X132013672Y-95769864D01*
X132089972Y-95718883D01*
X132218883Y-95589972D01*
X132288984Y-95485058D01*
X132320166Y-95438391D01*
X132320168Y-95438387D01*
X132343422Y-95382245D01*
X132389933Y-95269958D01*
X132401572Y-95211445D01*
X132425500Y-95091156D01*
X132425500Y-94908843D01*
X132389934Y-94730047D01*
X132389933Y-94730046D01*
X132389933Y-94730042D01*
X132389931Y-94730037D01*
X132320168Y-94561612D01*
X132320166Y-94561608D01*
X132218886Y-94410032D01*
X132218880Y-94410024D01*
X132089975Y-94281119D01*
X132089967Y-94281113D01*
X131938391Y-94179833D01*
X131938387Y-94179831D01*
X131769962Y-94110068D01*
X131769952Y-94110065D01*
X131591156Y-94074500D01*
X131591154Y-94074500D01*
X131408846Y-94074500D01*
X131408844Y-94074500D01*
X131230047Y-94110065D01*
X131230037Y-94110068D01*
X131061612Y-94179831D01*
X131061608Y-94179833D01*
X130910032Y-94281113D01*
X130910024Y-94281119D01*
X130781119Y-94410024D01*
X130781113Y-94410032D01*
X130727602Y-94490118D01*
X130673990Y-94534924D01*
X130604665Y-94543631D01*
X130541638Y-94513477D01*
X130504918Y-94454034D01*
X130500500Y-94421228D01*
X130500500Y-90624500D01*
X130520185Y-90557461D01*
X130572989Y-90511706D01*
X130624500Y-90500500D01*
X133280428Y-90500500D01*
X133347467Y-90520185D01*
G37*
%TD.AperFunction*%
%TA.AperFunction,Conductor*%
G36*
X152930212Y-101515147D02*
G01*
X152981687Y-101562391D01*
X152999500Y-101626424D01*
X152999500Y-109375500D01*
X152979815Y-109442539D01*
X152927011Y-109488294D01*
X152875500Y-109499500D01*
X144219572Y-109499500D01*
X144152533Y-109479815D01*
X144106778Y-109427011D01*
X144096834Y-109357853D01*
X144125859Y-109294297D01*
X144154471Y-109269963D01*
X144198655Y-109242711D01*
X144322711Y-109118655D01*
X144414814Y-108969334D01*
X144469999Y-108802797D01*
X144480500Y-108700008D01*
X144480500Y-106346859D01*
X144500185Y-106279820D01*
X144552989Y-106234065D01*
X144622147Y-106224121D01*
X144685703Y-106253146D01*
X144704819Y-106273974D01*
X144758034Y-106347219D01*
X144902786Y-106491971D01*
X145057749Y-106604556D01*
X145068390Y-106612287D01*
X145158829Y-106658368D01*
X145250776Y-106705218D01*
X145250778Y-106705218D01*
X145250781Y-106705220D01*
X145355137Y-106739127D01*
X145445465Y-106768477D01*
X145546557Y-106784488D01*
X145647648Y-106800500D01*
X145647649Y-106800500D01*
X145852351Y-106800500D01*
X145852352Y-106800500D01*
X146054534Y-106768477D01*
X146249219Y-106705220D01*
X146431610Y-106612287D01*
X146524590Y-106544732D01*
X146597213Y-106491971D01*
X146597215Y-106491968D01*
X146597219Y-106491966D01*
X146741966Y-106347219D01*
X146741968Y-106347215D01*
X146741971Y-106347213D01*
X146816795Y-106244225D01*
X146862287Y-106181610D01*
X146955220Y-105999219D01*
X147018477Y-105804534D01*
X147050500Y-105602352D01*
X147050500Y-105397648D01*
X147018477Y-105195466D01*
X146955220Y-105000781D01*
X146955218Y-105000778D01*
X146955218Y-105000776D01*
X146921503Y-104934607D01*
X146862287Y-104818390D01*
X146854556Y-104807749D01*
X146741971Y-104652786D01*
X146597213Y-104508028D01*
X146431613Y-104387715D01*
X146431612Y-104387714D01*
X146431610Y-104387713D01*
X146374653Y-104358691D01*
X146249223Y-104294781D01*
X146054534Y-104231522D01*
X145879995Y-104203878D01*
X145852352Y-104199500D01*
X145647648Y-104199500D01*
X145609772Y-104205499D01*
X145445468Y-104231522D01*
X145436717Y-104234365D01*
X145431154Y-104236173D01*
X145361313Y-104238167D01*
X145305157Y-104205922D01*
X145274772Y-104175537D01*
X145241287Y-104114214D01*
X145246271Y-104044522D01*
X145274772Y-104000175D01*
X145318076Y-103956870D01*
X145318081Y-103956865D01*
X145401744Y-103815398D01*
X145447598Y-103657569D01*
X145450500Y-103620694D01*
X145450500Y-103599098D01*
X145470185Y-103532059D01*
X145522989Y-103486304D01*
X145592147Y-103476360D01*
X145655703Y-103505385D01*
X145662181Y-103511417D01*
X145671284Y-103520520D01*
X145758095Y-103570639D01*
X145758097Y-103570641D01*
X145807385Y-103599098D01*
X145808215Y-103599577D01*
X145960942Y-103640500D01*
X145960943Y-103640500D01*
X147889208Y-103640500D01*
X147956247Y-103660185D01*
X147989524Y-103691612D01*
X148084310Y-103822073D01*
X148217927Y-103955690D01*
X148370801Y-104066760D01*
X148437020Y-104100500D01*
X148539163Y-104152545D01*
X148539165Y-104152545D01*
X148539168Y-104152547D01*
X148635497Y-104183846D01*
X148718881Y-104210940D01*
X148905514Y-104240500D01*
X148905519Y-104240500D01*
X149094486Y-104240500D01*
X149281118Y-104210940D01*
X149297860Y-104205500D01*
X149460832Y-104152547D01*
X149629199Y-104066760D01*
X149782073Y-103955690D01*
X149915690Y-103822073D01*
X150026760Y-103669199D01*
X150112547Y-103500832D01*
X150112550Y-103500820D01*
X150113101Y-103499493D01*
X150113639Y-103498686D01*
X150114759Y-103496490D01*
X150115018Y-103496622D01*
X150139986Y-103459248D01*
X150190520Y-103408716D01*
X150190520Y-103408714D01*
X150200725Y-103398510D01*
X150200729Y-103398505D01*
X151055158Y-102544075D01*
X151116479Y-102510592D01*
X151181151Y-102513825D01*
X151195466Y-102518477D01*
X151397648Y-102550500D01*
X151397649Y-102550500D01*
X151602351Y-102550500D01*
X151602352Y-102550500D01*
X151804534Y-102518477D01*
X151999219Y-102455220D01*
X152181610Y-102362287D01*
X152274590Y-102294732D01*
X152347213Y-102241971D01*
X152347215Y-102241968D01*
X152347219Y-102241966D01*
X152491966Y-102097219D01*
X152491968Y-102097215D01*
X152491971Y-102097213D01*
X152552980Y-102013240D01*
X152612287Y-101931610D01*
X152705220Y-101749219D01*
X152757569Y-101588106D01*
X152797007Y-101530430D01*
X152861365Y-101503232D01*
X152930212Y-101515147D01*
G37*
%TD.AperFunction*%
%TD*%
M02*
