%TF.GenerationSoftware,KiCad,Pcbnew,10.0.6*%
%TF.CreationDate,2026-09-18T19:39:31+05:30*%
%TF.ProjectId,voltage_doubler,766f6c74-6167-4655-9f64-6f75626c6572,rev?*%
%TF.SameCoordinates,Original*%
%TF.FileFunction,Legend,Top*%
%TF.FilePolarity,Positive*%
%FSLAX46Y46*%
G04 Gerber Fmt 4.6, Leading zero omitted, Abs format (unit mm)*
G04 Created by KiCad (PCBNEW 10.0.6) date 2026-09-18 19:39:31*
%MOMM*%
%LPD*%
G01*
G04 APERTURE LIST*
%ADD10C,0.100000*%
%ADD11C,0.150000*%
%ADD12C,0.120000*%
G04 APERTURE END LIST*
D10*
X146613408Y-108096895D02*
X146780074Y-108896895D01*
X146780074Y-108896895D02*
X146946741Y-108096895D01*
X147184836Y-108896895D02*
X147137217Y-108858800D01*
X147137217Y-108858800D02*
X147113407Y-108820704D01*
X147113407Y-108820704D02*
X147089598Y-108744514D01*
X147089598Y-108744514D02*
X147089598Y-108515942D01*
X147089598Y-108515942D02*
X147113407Y-108439752D01*
X147113407Y-108439752D02*
X147137217Y-108401657D01*
X147137217Y-108401657D02*
X147184836Y-108363561D01*
X147184836Y-108363561D02*
X147256264Y-108363561D01*
X147256264Y-108363561D02*
X147303883Y-108401657D01*
X147303883Y-108401657D02*
X147327693Y-108439752D01*
X147327693Y-108439752D02*
X147351502Y-108515942D01*
X147351502Y-108515942D02*
X147351502Y-108744514D01*
X147351502Y-108744514D02*
X147327693Y-108820704D01*
X147327693Y-108820704D02*
X147303883Y-108858800D01*
X147303883Y-108858800D02*
X147256264Y-108896895D01*
X147256264Y-108896895D02*
X147184836Y-108896895D01*
X147637217Y-108896895D02*
X147589598Y-108858800D01*
X147589598Y-108858800D02*
X147565788Y-108782609D01*
X147565788Y-108782609D02*
X147565788Y-108096895D01*
X147756265Y-108363561D02*
X147946741Y-108363561D01*
X147827693Y-108096895D02*
X147827693Y-108782609D01*
X147827693Y-108782609D02*
X147851503Y-108858800D01*
X147851503Y-108858800D02*
X147899122Y-108896895D01*
X147899122Y-108896895D02*
X147946741Y-108896895D01*
X148327693Y-108896895D02*
X148327693Y-108477847D01*
X148327693Y-108477847D02*
X148303883Y-108401657D01*
X148303883Y-108401657D02*
X148256264Y-108363561D01*
X148256264Y-108363561D02*
X148161026Y-108363561D01*
X148161026Y-108363561D02*
X148113407Y-108401657D01*
X148327693Y-108858800D02*
X148280074Y-108896895D01*
X148280074Y-108896895D02*
X148161026Y-108896895D01*
X148161026Y-108896895D02*
X148113407Y-108858800D01*
X148113407Y-108858800D02*
X148089598Y-108782609D01*
X148089598Y-108782609D02*
X148089598Y-108706419D01*
X148089598Y-108706419D02*
X148113407Y-108630228D01*
X148113407Y-108630228D02*
X148161026Y-108592133D01*
X148161026Y-108592133D02*
X148280074Y-108592133D01*
X148280074Y-108592133D02*
X148327693Y-108554038D01*
X148780074Y-108363561D02*
X148780074Y-109011180D01*
X148780074Y-109011180D02*
X148756264Y-109087371D01*
X148756264Y-109087371D02*
X148732455Y-109125466D01*
X148732455Y-109125466D02*
X148684836Y-109163561D01*
X148684836Y-109163561D02*
X148613407Y-109163561D01*
X148613407Y-109163561D02*
X148565788Y-109125466D01*
X148780074Y-108858800D02*
X148732455Y-108896895D01*
X148732455Y-108896895D02*
X148637217Y-108896895D01*
X148637217Y-108896895D02*
X148589598Y-108858800D01*
X148589598Y-108858800D02*
X148565788Y-108820704D01*
X148565788Y-108820704D02*
X148541979Y-108744514D01*
X148541979Y-108744514D02*
X148541979Y-108515942D01*
X148541979Y-108515942D02*
X148565788Y-108439752D01*
X148565788Y-108439752D02*
X148589598Y-108401657D01*
X148589598Y-108401657D02*
X148637217Y-108363561D01*
X148637217Y-108363561D02*
X148732455Y-108363561D01*
X148732455Y-108363561D02*
X148780074Y-108401657D01*
X149208645Y-108858800D02*
X149161026Y-108896895D01*
X149161026Y-108896895D02*
X149065788Y-108896895D01*
X149065788Y-108896895D02*
X149018169Y-108858800D01*
X149018169Y-108858800D02*
X148994360Y-108782609D01*
X148994360Y-108782609D02*
X148994360Y-108477847D01*
X148994360Y-108477847D02*
X149018169Y-108401657D01*
X149018169Y-108401657D02*
X149065788Y-108363561D01*
X149065788Y-108363561D02*
X149161026Y-108363561D01*
X149161026Y-108363561D02*
X149208645Y-108401657D01*
X149208645Y-108401657D02*
X149232455Y-108477847D01*
X149232455Y-108477847D02*
X149232455Y-108554038D01*
X149232455Y-108554038D02*
X148994360Y-108630228D01*
X149827692Y-108896895D02*
X149827692Y-108096895D01*
X149827692Y-108096895D02*
X149946740Y-108096895D01*
X149946740Y-108096895D02*
X150018168Y-108134990D01*
X150018168Y-108134990D02*
X150065787Y-108211180D01*
X150065787Y-108211180D02*
X150089597Y-108287371D01*
X150089597Y-108287371D02*
X150113406Y-108439752D01*
X150113406Y-108439752D02*
X150113406Y-108554038D01*
X150113406Y-108554038D02*
X150089597Y-108706419D01*
X150089597Y-108706419D02*
X150065787Y-108782609D01*
X150065787Y-108782609D02*
X150018168Y-108858800D01*
X150018168Y-108858800D02*
X149946740Y-108896895D01*
X149946740Y-108896895D02*
X149827692Y-108896895D01*
X150399121Y-108896895D02*
X150351502Y-108858800D01*
X150351502Y-108858800D02*
X150327692Y-108820704D01*
X150327692Y-108820704D02*
X150303883Y-108744514D01*
X150303883Y-108744514D02*
X150303883Y-108515942D01*
X150303883Y-108515942D02*
X150327692Y-108439752D01*
X150327692Y-108439752D02*
X150351502Y-108401657D01*
X150351502Y-108401657D02*
X150399121Y-108363561D01*
X150399121Y-108363561D02*
X150470549Y-108363561D01*
X150470549Y-108363561D02*
X150518168Y-108401657D01*
X150518168Y-108401657D02*
X150541978Y-108439752D01*
X150541978Y-108439752D02*
X150565787Y-108515942D01*
X150565787Y-108515942D02*
X150565787Y-108744514D01*
X150565787Y-108744514D02*
X150541978Y-108820704D01*
X150541978Y-108820704D02*
X150518168Y-108858800D01*
X150518168Y-108858800D02*
X150470549Y-108896895D01*
X150470549Y-108896895D02*
X150399121Y-108896895D01*
X150994359Y-108363561D02*
X150994359Y-108896895D01*
X150780073Y-108363561D02*
X150780073Y-108782609D01*
X150780073Y-108782609D02*
X150803883Y-108858800D01*
X150803883Y-108858800D02*
X150851502Y-108896895D01*
X150851502Y-108896895D02*
X150922930Y-108896895D01*
X150922930Y-108896895D02*
X150970549Y-108858800D01*
X150970549Y-108858800D02*
X150994359Y-108820704D01*
X151232454Y-108896895D02*
X151232454Y-108096895D01*
X151232454Y-108401657D02*
X151280073Y-108363561D01*
X151280073Y-108363561D02*
X151375311Y-108363561D01*
X151375311Y-108363561D02*
X151422930Y-108401657D01*
X151422930Y-108401657D02*
X151446740Y-108439752D01*
X151446740Y-108439752D02*
X151470549Y-108515942D01*
X151470549Y-108515942D02*
X151470549Y-108744514D01*
X151470549Y-108744514D02*
X151446740Y-108820704D01*
X151446740Y-108820704D02*
X151422930Y-108858800D01*
X151422930Y-108858800D02*
X151375311Y-108896895D01*
X151375311Y-108896895D02*
X151280073Y-108896895D01*
X151280073Y-108896895D02*
X151232454Y-108858800D01*
X151756264Y-108896895D02*
X151708645Y-108858800D01*
X151708645Y-108858800D02*
X151684835Y-108782609D01*
X151684835Y-108782609D02*
X151684835Y-108096895D01*
X152137216Y-108858800D02*
X152089597Y-108896895D01*
X152089597Y-108896895D02*
X151994359Y-108896895D01*
X151994359Y-108896895D02*
X151946740Y-108858800D01*
X151946740Y-108858800D02*
X151922931Y-108782609D01*
X151922931Y-108782609D02*
X151922931Y-108477847D01*
X151922931Y-108477847D02*
X151946740Y-108401657D01*
X151946740Y-108401657D02*
X151994359Y-108363561D01*
X151994359Y-108363561D02*
X152089597Y-108363561D01*
X152089597Y-108363561D02*
X152137216Y-108401657D01*
X152137216Y-108401657D02*
X152161026Y-108477847D01*
X152161026Y-108477847D02*
X152161026Y-108554038D01*
X152161026Y-108554038D02*
X151922931Y-108630228D01*
X152375311Y-108896895D02*
X152375311Y-108363561D01*
X152375311Y-108515942D02*
X152399121Y-108439752D01*
X152399121Y-108439752D02*
X152422930Y-108401657D01*
X152422930Y-108401657D02*
X152470549Y-108363561D01*
X152470549Y-108363561D02*
X152518168Y-108363561D01*
D11*
X146833333Y-103809580D02*
X146785714Y-103857200D01*
X146785714Y-103857200D02*
X146642857Y-103904819D01*
X146642857Y-103904819D02*
X146547619Y-103904819D01*
X146547619Y-103904819D02*
X146404762Y-103857200D01*
X146404762Y-103857200D02*
X146309524Y-103761961D01*
X146309524Y-103761961D02*
X146261905Y-103666723D01*
X146261905Y-103666723D02*
X146214286Y-103476247D01*
X146214286Y-103476247D02*
X146214286Y-103333390D01*
X146214286Y-103333390D02*
X146261905Y-103142914D01*
X146261905Y-103142914D02*
X146309524Y-103047676D01*
X146309524Y-103047676D02*
X146404762Y-102952438D01*
X146404762Y-102952438D02*
X146547619Y-102904819D01*
X146547619Y-102904819D02*
X146642857Y-102904819D01*
X146642857Y-102904819D02*
X146785714Y-102952438D01*
X146785714Y-102952438D02*
X146833333Y-103000057D01*
X147214286Y-103000057D02*
X147261905Y-102952438D01*
X147261905Y-102952438D02*
X147357143Y-102904819D01*
X147357143Y-102904819D02*
X147595238Y-102904819D01*
X147595238Y-102904819D02*
X147690476Y-102952438D01*
X147690476Y-102952438D02*
X147738095Y-103000057D01*
X147738095Y-103000057D02*
X147785714Y-103095295D01*
X147785714Y-103095295D02*
X147785714Y-103190533D01*
X147785714Y-103190533D02*
X147738095Y-103333390D01*
X147738095Y-103333390D02*
X147166667Y-103904819D01*
X147166667Y-103904819D02*
X147785714Y-103904819D01*
X139109580Y-97166666D02*
X139157200Y-97214285D01*
X139157200Y-97214285D02*
X139204819Y-97357142D01*
X139204819Y-97357142D02*
X139204819Y-97452380D01*
X139204819Y-97452380D02*
X139157200Y-97595237D01*
X139157200Y-97595237D02*
X139061961Y-97690475D01*
X139061961Y-97690475D02*
X138966723Y-97738094D01*
X138966723Y-97738094D02*
X138776247Y-97785713D01*
X138776247Y-97785713D02*
X138633390Y-97785713D01*
X138633390Y-97785713D02*
X138442914Y-97738094D01*
X138442914Y-97738094D02*
X138347676Y-97690475D01*
X138347676Y-97690475D02*
X138252438Y-97595237D01*
X138252438Y-97595237D02*
X138204819Y-97452380D01*
X138204819Y-97452380D02*
X138204819Y-97357142D01*
X138204819Y-97357142D02*
X138252438Y-97214285D01*
X138252438Y-97214285D02*
X138300057Y-97166666D01*
X138538152Y-96309523D02*
X139204819Y-96309523D01*
X138157200Y-96547618D02*
X138871485Y-96785713D01*
X138871485Y-96785713D02*
X138871485Y-96166666D01*
X148454819Y-93238094D02*
X147454819Y-93238094D01*
X147454819Y-93238094D02*
X147454819Y-92999999D01*
X147454819Y-92999999D02*
X147502438Y-92857142D01*
X147502438Y-92857142D02*
X147597676Y-92761904D01*
X147597676Y-92761904D02*
X147692914Y-92714285D01*
X147692914Y-92714285D02*
X147883390Y-92666666D01*
X147883390Y-92666666D02*
X148026247Y-92666666D01*
X148026247Y-92666666D02*
X148216723Y-92714285D01*
X148216723Y-92714285D02*
X148311961Y-92761904D01*
X148311961Y-92761904D02*
X148407200Y-92857142D01*
X148407200Y-92857142D02*
X148454819Y-92999999D01*
X148454819Y-92999999D02*
X148454819Y-93238094D01*
X147550057Y-92285713D02*
X147502438Y-92238094D01*
X147502438Y-92238094D02*
X147454819Y-92142856D01*
X147454819Y-92142856D02*
X147454819Y-91904761D01*
X147454819Y-91904761D02*
X147502438Y-91809523D01*
X147502438Y-91809523D02*
X147550057Y-91761904D01*
X147550057Y-91761904D02*
X147645295Y-91714285D01*
X147645295Y-91714285D02*
X147740533Y-91714285D01*
X147740533Y-91714285D02*
X147883390Y-91761904D01*
X147883390Y-91761904D02*
X148454819Y-92333332D01*
X148454819Y-92333332D02*
X148454819Y-91714285D01*
X148833333Y-96454819D02*
X148500000Y-95978628D01*
X148261905Y-96454819D02*
X148261905Y-95454819D01*
X148261905Y-95454819D02*
X148642857Y-95454819D01*
X148642857Y-95454819D02*
X148738095Y-95502438D01*
X148738095Y-95502438D02*
X148785714Y-95550057D01*
X148785714Y-95550057D02*
X148833333Y-95645295D01*
X148833333Y-95645295D02*
X148833333Y-95788152D01*
X148833333Y-95788152D02*
X148785714Y-95883390D01*
X148785714Y-95883390D02*
X148738095Y-95931009D01*
X148738095Y-95931009D02*
X148642857Y-95978628D01*
X148642857Y-95978628D02*
X148261905Y-95978628D01*
X149214286Y-95550057D02*
X149261905Y-95502438D01*
X149261905Y-95502438D02*
X149357143Y-95454819D01*
X149357143Y-95454819D02*
X149595238Y-95454819D01*
X149595238Y-95454819D02*
X149690476Y-95502438D01*
X149690476Y-95502438D02*
X149738095Y-95550057D01*
X149738095Y-95550057D02*
X149785714Y-95645295D01*
X149785714Y-95645295D02*
X149785714Y-95740533D01*
X149785714Y-95740533D02*
X149738095Y-95883390D01*
X149738095Y-95883390D02*
X149166667Y-96454819D01*
X149166667Y-96454819D02*
X149785714Y-96454819D01*
X144954819Y-97166666D02*
X144478628Y-97499999D01*
X144954819Y-97738094D02*
X143954819Y-97738094D01*
X143954819Y-97738094D02*
X143954819Y-97357142D01*
X143954819Y-97357142D02*
X144002438Y-97261904D01*
X144002438Y-97261904D02*
X144050057Y-97214285D01*
X144050057Y-97214285D02*
X144145295Y-97166666D01*
X144145295Y-97166666D02*
X144288152Y-97166666D01*
X144288152Y-97166666D02*
X144383390Y-97214285D01*
X144383390Y-97214285D02*
X144431009Y-97261904D01*
X144431009Y-97261904D02*
X144478628Y-97357142D01*
X144478628Y-97357142D02*
X144478628Y-97738094D01*
X144954819Y-96214285D02*
X144954819Y-96785713D01*
X144954819Y-96499999D02*
X143954819Y-96499999D01*
X143954819Y-96499999D02*
X144097676Y-96595237D01*
X144097676Y-96595237D02*
X144192914Y-96690475D01*
X144192914Y-96690475D02*
X144240533Y-96785713D01*
X140738095Y-97554819D02*
X140738095Y-98364342D01*
X140738095Y-98364342D02*
X140785714Y-98459580D01*
X140785714Y-98459580D02*
X140833333Y-98507200D01*
X140833333Y-98507200D02*
X140928571Y-98554819D01*
X140928571Y-98554819D02*
X141119047Y-98554819D01*
X141119047Y-98554819D02*
X141214285Y-98507200D01*
X141214285Y-98507200D02*
X141261904Y-98459580D01*
X141261904Y-98459580D02*
X141309523Y-98364342D01*
X141309523Y-98364342D02*
X141309523Y-97554819D01*
X142309523Y-98554819D02*
X141738095Y-98554819D01*
X142023809Y-98554819D02*
X142023809Y-97554819D01*
X142023809Y-97554819D02*
X141928571Y-97697676D01*
X141928571Y-97697676D02*
X141833333Y-97792914D01*
X141833333Y-97792914D02*
X141738095Y-97840533D01*
X131166666Y-97454819D02*
X131166666Y-98169104D01*
X131166666Y-98169104D02*
X131119047Y-98311961D01*
X131119047Y-98311961D02*
X131023809Y-98407200D01*
X131023809Y-98407200D02*
X130880952Y-98454819D01*
X130880952Y-98454819D02*
X130785714Y-98454819D01*
X131595238Y-97550057D02*
X131642857Y-97502438D01*
X131642857Y-97502438D02*
X131738095Y-97454819D01*
X131738095Y-97454819D02*
X131976190Y-97454819D01*
X131976190Y-97454819D02*
X132071428Y-97502438D01*
X132071428Y-97502438D02*
X132119047Y-97550057D01*
X132119047Y-97550057D02*
X132166666Y-97645295D01*
X132166666Y-97645295D02*
X132166666Y-97740533D01*
X132166666Y-97740533D02*
X132119047Y-97883390D01*
X132119047Y-97883390D02*
X131547619Y-98454819D01*
X131547619Y-98454819D02*
X132166666Y-98454819D01*
X132833333Y-100359580D02*
X132785714Y-100407200D01*
X132785714Y-100407200D02*
X132642857Y-100454819D01*
X132642857Y-100454819D02*
X132547619Y-100454819D01*
X132547619Y-100454819D02*
X132404762Y-100407200D01*
X132404762Y-100407200D02*
X132309524Y-100311961D01*
X132309524Y-100311961D02*
X132261905Y-100216723D01*
X132261905Y-100216723D02*
X132214286Y-100026247D01*
X132214286Y-100026247D02*
X132214286Y-99883390D01*
X132214286Y-99883390D02*
X132261905Y-99692914D01*
X132261905Y-99692914D02*
X132309524Y-99597676D01*
X132309524Y-99597676D02*
X132404762Y-99502438D01*
X132404762Y-99502438D02*
X132547619Y-99454819D01*
X132547619Y-99454819D02*
X132642857Y-99454819D01*
X132642857Y-99454819D02*
X132785714Y-99502438D01*
X132785714Y-99502438D02*
X132833333Y-99550057D01*
X133166667Y-99454819D02*
X133785714Y-99454819D01*
X133785714Y-99454819D02*
X133452381Y-99835771D01*
X133452381Y-99835771D02*
X133595238Y-99835771D01*
X133595238Y-99835771D02*
X133690476Y-99883390D01*
X133690476Y-99883390D02*
X133738095Y-99931009D01*
X133738095Y-99931009D02*
X133785714Y-100026247D01*
X133785714Y-100026247D02*
X133785714Y-100264342D01*
X133785714Y-100264342D02*
X133738095Y-100359580D01*
X133738095Y-100359580D02*
X133690476Y-100407200D01*
X133690476Y-100407200D02*
X133595238Y-100454819D01*
X133595238Y-100454819D02*
X133309524Y-100454819D01*
X133309524Y-100454819D02*
X133214286Y-100407200D01*
X133214286Y-100407200D02*
X133166667Y-100359580D01*
X151333333Y-105859580D02*
X151285714Y-105907200D01*
X151285714Y-105907200D02*
X151142857Y-105954819D01*
X151142857Y-105954819D02*
X151047619Y-105954819D01*
X151047619Y-105954819D02*
X150904762Y-105907200D01*
X150904762Y-105907200D02*
X150809524Y-105811961D01*
X150809524Y-105811961D02*
X150761905Y-105716723D01*
X150761905Y-105716723D02*
X150714286Y-105526247D01*
X150714286Y-105526247D02*
X150714286Y-105383390D01*
X150714286Y-105383390D02*
X150761905Y-105192914D01*
X150761905Y-105192914D02*
X150809524Y-105097676D01*
X150809524Y-105097676D02*
X150904762Y-105002438D01*
X150904762Y-105002438D02*
X151047619Y-104954819D01*
X151047619Y-104954819D02*
X151142857Y-104954819D01*
X151142857Y-104954819D02*
X151285714Y-105002438D01*
X151285714Y-105002438D02*
X151333333Y-105050057D01*
X152285714Y-105954819D02*
X151714286Y-105954819D01*
X152000000Y-105954819D02*
X152000000Y-104954819D01*
X152000000Y-104954819D02*
X151904762Y-105097676D01*
X151904762Y-105097676D02*
X151809524Y-105192914D01*
X151809524Y-105192914D02*
X151714286Y-105240533D01*
X131261905Y-104954819D02*
X131261905Y-103954819D01*
X131261905Y-103954819D02*
X131500000Y-103954819D01*
X131500000Y-103954819D02*
X131642857Y-104002438D01*
X131642857Y-104002438D02*
X131738095Y-104097676D01*
X131738095Y-104097676D02*
X131785714Y-104192914D01*
X131785714Y-104192914D02*
X131833333Y-104383390D01*
X131833333Y-104383390D02*
X131833333Y-104526247D01*
X131833333Y-104526247D02*
X131785714Y-104716723D01*
X131785714Y-104716723D02*
X131738095Y-104811961D01*
X131738095Y-104811961D02*
X131642857Y-104907200D01*
X131642857Y-104907200D02*
X131500000Y-104954819D01*
X131500000Y-104954819D02*
X131261905Y-104954819D01*
X132785714Y-104954819D02*
X132214286Y-104954819D01*
X132500000Y-104954819D02*
X132500000Y-103954819D01*
X132500000Y-103954819D02*
X132404762Y-104097676D01*
X132404762Y-104097676D02*
X132309524Y-104192914D01*
X132309524Y-104192914D02*
X132214286Y-104240533D01*
X151666666Y-93454819D02*
X151666666Y-94169104D01*
X151666666Y-94169104D02*
X151619047Y-94311961D01*
X151619047Y-94311961D02*
X151523809Y-94407200D01*
X151523809Y-94407200D02*
X151380952Y-94454819D01*
X151380952Y-94454819D02*
X151285714Y-94454819D01*
X152666666Y-94454819D02*
X152095238Y-94454819D01*
X152380952Y-94454819D02*
X152380952Y-93454819D01*
X152380952Y-93454819D02*
X152285714Y-93597676D01*
X152285714Y-93597676D02*
X152190476Y-93692914D01*
X152190476Y-93692914D02*
X152095238Y-93740533D01*
%TO.C,C2*%
D12*
X146235000Y-104580000D02*
X147765000Y-104580000D01*
X147765000Y-106420000D02*
X146235000Y-106420000D01*
%TO.C,C4*%
X134660000Y-97750000D02*
X133420000Y-97750000D01*
X134660000Y-97790000D02*
X133420000Y-97790000D01*
X134660000Y-97830000D02*
X133422000Y-97830000D01*
X134660000Y-97870000D02*
X133423000Y-97870000D01*
X134660000Y-97910000D02*
X133426000Y-97910000D01*
X134660000Y-97950000D02*
X133429000Y-97950000D01*
X134660000Y-97990000D02*
X133434000Y-97990000D01*
X134660000Y-98030000D02*
X133439000Y-98030000D01*
X134660000Y-98070000D02*
X133444000Y-98070000D01*
X134660000Y-98110000D02*
X133451000Y-98110000D01*
X134660000Y-98150000D02*
X133458000Y-98150000D01*
X134660000Y-98190000D02*
X133466000Y-98190000D01*
X134660000Y-98230000D02*
X133475000Y-98230000D01*
X134660000Y-98270000D02*
X133485000Y-98270000D01*
X134660000Y-98310000D02*
X133495000Y-98310000D01*
X134660000Y-98350000D02*
X133507000Y-98350000D01*
X134660000Y-98390000D02*
X133519000Y-98390000D01*
X134660000Y-98430000D02*
X133532000Y-98430000D01*
X134660000Y-98470000D02*
X133546000Y-98470000D01*
X134660000Y-98510000D02*
X133561000Y-98510000D01*
X134660000Y-98550000D02*
X133577000Y-98550000D01*
X134660000Y-98590000D02*
X133594000Y-98590000D01*
X134660000Y-98630000D02*
X133611000Y-98630000D01*
X134660000Y-98670000D02*
X133630000Y-98670000D01*
X134660000Y-98710000D02*
X133650000Y-98710000D01*
X134660000Y-98750000D02*
X133671000Y-98750000D01*
X134660000Y-98790000D02*
X133693000Y-98790000D01*
X134660000Y-98830000D02*
X133716000Y-98830000D01*
X134660000Y-98870000D02*
X133740000Y-98870000D01*
X134660000Y-98910000D02*
X133766000Y-98910000D01*
X134660000Y-98950000D02*
X133792000Y-98950000D01*
X134660000Y-98990000D02*
X133820000Y-98990000D01*
X134660000Y-99030000D02*
X133850000Y-99030000D01*
X134660000Y-99070000D02*
X133881000Y-99070000D01*
X134660000Y-99110000D02*
X133914000Y-99110000D01*
X134660000Y-99150000D02*
X133948000Y-99150000D01*
X134660000Y-99190000D02*
X133984000Y-99190000D01*
X134660000Y-99230000D02*
X134022000Y-99230000D01*
X134660000Y-99270000D02*
X134062000Y-99270000D01*
X134660000Y-99310000D02*
X134104000Y-99310000D01*
X135870000Y-99830000D02*
X135130000Y-99830000D01*
X136037000Y-99790000D02*
X134963000Y-99790000D01*
X136163000Y-99750000D02*
X134837000Y-99750000D01*
X136268000Y-99710000D02*
X134732000Y-99710000D01*
X136359000Y-99670000D02*
X134641000Y-99670000D01*
X136440000Y-99630000D02*
X134560000Y-99630000D01*
X136513000Y-99590000D02*
X134487000Y-99590000D01*
X136580000Y-99550000D02*
X134420000Y-99550000D01*
X136642000Y-99510000D02*
X134358000Y-99510000D01*
X136695000Y-95480199D02*
X136695000Y-95880199D01*
X136699000Y-99470000D02*
X134301000Y-99470000D01*
X136753000Y-99430000D02*
X134247000Y-99430000D01*
X136803000Y-99390000D02*
X134197000Y-99390000D01*
X136851000Y-99350000D02*
X134149000Y-99350000D01*
X136895000Y-95680199D02*
X136495000Y-95680199D01*
X136896000Y-99310000D02*
X136340000Y-99310000D01*
X136938000Y-99270000D02*
X136340000Y-99270000D01*
X136978000Y-99230000D02*
X136340000Y-99230000D01*
X137016000Y-99190000D02*
X136340000Y-99190000D01*
X137052000Y-99150000D02*
X136340000Y-99150000D01*
X137086000Y-99110000D02*
X136340000Y-99110000D01*
X137119000Y-99070000D02*
X136340000Y-99070000D01*
X137150000Y-99030000D02*
X136340000Y-99030000D01*
X137180000Y-98990000D02*
X136340000Y-98990000D01*
X137208000Y-98950000D02*
X136340000Y-98950000D01*
X137234000Y-98910000D02*
X136340000Y-98910000D01*
X137260000Y-98870000D02*
X136340000Y-98870000D01*
X137284000Y-98830000D02*
X136340000Y-98830000D01*
X137307000Y-98790000D02*
X136340000Y-98790000D01*
X137329000Y-98750000D02*
X136340000Y-98750000D01*
X137350000Y-98710000D02*
X136340000Y-98710000D01*
X137370000Y-98670000D02*
X136340000Y-98670000D01*
X137389000Y-98630000D02*
X136340000Y-98630000D01*
X137406000Y-98590000D02*
X136340000Y-98590000D01*
X137423000Y-98550000D02*
X136340000Y-98550000D01*
X137439000Y-98510000D02*
X136340000Y-98510000D01*
X137454000Y-98470000D02*
X136340000Y-98470000D01*
X137468000Y-98430000D02*
X136340000Y-98430000D01*
X137481000Y-98390000D02*
X136340000Y-98390000D01*
X137493000Y-98350000D02*
X136340000Y-98350000D01*
X137505000Y-98310000D02*
X136340000Y-98310000D01*
X137515000Y-98270000D02*
X136340000Y-98270000D01*
X137525000Y-98230000D02*
X136340000Y-98230000D01*
X137534000Y-98190000D02*
X136340000Y-98190000D01*
X137542000Y-98150000D02*
X136340000Y-98150000D01*
X137549000Y-98110000D02*
X136340000Y-98110000D01*
X137556000Y-98070000D02*
X136340000Y-98070000D01*
X137561000Y-98030000D02*
X136340000Y-98030000D01*
X137566000Y-97990000D02*
X136340000Y-97990000D01*
X137571000Y-97950000D02*
X136340000Y-97950000D01*
X137574000Y-97910000D02*
X136340000Y-97910000D01*
X137577000Y-97870000D02*
X136340000Y-97870000D01*
X137578000Y-97830000D02*
X136340000Y-97830000D01*
X137580000Y-97750000D02*
X136340000Y-97750000D01*
X137580000Y-97790000D02*
X136340000Y-97790000D01*
X137620000Y-97750000D02*
G75*
G02*
X133380000Y-97750000I-2120000J0D01*
G01*
X133380000Y-97750000D02*
G75*
G02*
X137620000Y-97750000I2120000J0D01*
G01*
%TO.C,D2*%
X135430000Y-90530000D02*
X144570000Y-90530000D01*
X135430000Y-90860000D02*
X135430000Y-90530000D01*
X135430000Y-94140000D02*
X135430000Y-94470000D01*
X135430000Y-94470000D02*
X144570000Y-94470000D01*
X136765000Y-90530000D02*
X136765000Y-94470000D01*
X136885000Y-90530000D02*
X136885000Y-94470000D01*
X137005000Y-90530000D02*
X137005000Y-94470000D01*
X144570000Y-90530000D02*
X144570000Y-90860000D01*
X144570000Y-94470000D02*
X144570000Y-94140000D01*
%TO.C,R2*%
X148080000Y-98580000D02*
X148080000Y-102420000D01*
X149920000Y-98580000D02*
X149920000Y-102420000D01*
%TO.C,R1*%
X145580000Y-96580000D02*
X145580000Y-100420000D01*
X147420000Y-96580000D02*
X147420000Y-100420000D01*
%TO.C,U1*%
X139440000Y-98940000D02*
X143560000Y-98940000D01*
X139440000Y-99035000D02*
X139440000Y-98940000D01*
X139440000Y-104060000D02*
X139440000Y-103965000D01*
X143560000Y-98940000D02*
X143560000Y-99035000D01*
X143560000Y-103965000D02*
X143560000Y-104060000D01*
X143560000Y-104060000D02*
X139440000Y-104060000D01*
X138900000Y-99030000D02*
X138660000Y-98700000D01*
X139140000Y-98700000D01*
X138900000Y-99030000D01*
G36*
X138900000Y-99030000D02*
G01*
X138660000Y-98700000D01*
X139140000Y-98700000D01*
X138900000Y-99030000D01*
G37*
%TO.C,J2*%
X128140000Y-94740000D02*
X130140000Y-94740000D01*
X128140000Y-95260000D02*
X128140000Y-94740000D01*
X130140000Y-94390000D02*
X131089970Y-94390000D01*
X130140000Y-95260000D02*
X128140000Y-95260000D01*
X130140000Y-96610000D02*
X130140000Y-94390000D01*
X130765000Y-95500000D02*
X130140000Y-95500000D01*
X130765000Y-96610000D02*
X130140000Y-96610000D01*
X132235000Y-96000000D02*
X132235000Y-96735000D01*
X132235000Y-96735000D02*
X131500000Y-96735000D01*
X128140000Y-95740000D02*
X130140000Y-95740000D01*
X130140000Y-96260000D01*
X128140000Y-96260000D01*
X128140000Y-95740000D01*
G36*
X128140000Y-95740000D02*
G01*
X130140000Y-95740000D01*
X130140000Y-96260000D01*
X128140000Y-96260000D01*
X128140000Y-95740000D01*
G37*
%TO.C,C3*%
X134160000Y-102750000D02*
X132920000Y-102750000D01*
X134160000Y-102790000D02*
X132920000Y-102790000D01*
X134160000Y-102830000D02*
X132922000Y-102830000D01*
X134160000Y-102870000D02*
X132923000Y-102870000D01*
X134160000Y-102910000D02*
X132926000Y-102910000D01*
X134160000Y-102950000D02*
X132929000Y-102950000D01*
X134160000Y-102990000D02*
X132934000Y-102990000D01*
X134160000Y-103030000D02*
X132939000Y-103030000D01*
X134160000Y-103070000D02*
X132944000Y-103070000D01*
X134160000Y-103110000D02*
X132951000Y-103110000D01*
X134160000Y-103150000D02*
X132958000Y-103150000D01*
X134160000Y-103190000D02*
X132966000Y-103190000D01*
X134160000Y-103230000D02*
X132975000Y-103230000D01*
X134160000Y-103270000D02*
X132985000Y-103270000D01*
X134160000Y-103310000D02*
X132995000Y-103310000D01*
X134160000Y-103350000D02*
X133007000Y-103350000D01*
X134160000Y-103390000D02*
X133019000Y-103390000D01*
X134160000Y-103430000D02*
X133032000Y-103430000D01*
X134160000Y-103470000D02*
X133046000Y-103470000D01*
X134160000Y-103510000D02*
X133061000Y-103510000D01*
X134160000Y-103550000D02*
X133077000Y-103550000D01*
X134160000Y-103590000D02*
X133094000Y-103590000D01*
X134160000Y-103630000D02*
X133111000Y-103630000D01*
X134160000Y-103670000D02*
X133130000Y-103670000D01*
X134160000Y-103710000D02*
X133150000Y-103710000D01*
X134160000Y-103750000D02*
X133171000Y-103750000D01*
X134160000Y-103790000D02*
X133193000Y-103790000D01*
X134160000Y-103830000D02*
X133216000Y-103830000D01*
X134160000Y-103870000D02*
X133240000Y-103870000D01*
X134160000Y-103910000D02*
X133266000Y-103910000D01*
X134160000Y-103950000D02*
X133292000Y-103950000D01*
X134160000Y-103990000D02*
X133320000Y-103990000D01*
X134160000Y-104030000D02*
X133350000Y-104030000D01*
X134160000Y-104070000D02*
X133381000Y-104070000D01*
X134160000Y-104110000D02*
X133414000Y-104110000D01*
X134160000Y-104150000D02*
X133448000Y-104150000D01*
X134160000Y-104190000D02*
X133484000Y-104190000D01*
X134160000Y-104230000D02*
X133522000Y-104230000D01*
X134160000Y-104270000D02*
X133562000Y-104270000D01*
X134160000Y-104310000D02*
X133604000Y-104310000D01*
X135370000Y-104830000D02*
X134630000Y-104830000D01*
X135537000Y-104790000D02*
X134463000Y-104790000D01*
X135663000Y-104750000D02*
X134337000Y-104750000D01*
X135768000Y-104710000D02*
X134232000Y-104710000D01*
X135859000Y-104670000D02*
X134141000Y-104670000D01*
X135940000Y-104630000D02*
X134060000Y-104630000D01*
X136013000Y-104590000D02*
X133987000Y-104590000D01*
X136080000Y-104550000D02*
X133920000Y-104550000D01*
X136142000Y-104510000D02*
X133858000Y-104510000D01*
X136195000Y-100480199D02*
X136195000Y-100880199D01*
X136199000Y-104470000D02*
X133801000Y-104470000D01*
X136253000Y-104430000D02*
X133747000Y-104430000D01*
X136303000Y-104390000D02*
X133697000Y-104390000D01*
X136351000Y-104350000D02*
X133649000Y-104350000D01*
X136395000Y-100680199D02*
X135995000Y-100680199D01*
X136396000Y-104310000D02*
X135840000Y-104310000D01*
X136438000Y-104270000D02*
X135840000Y-104270000D01*
X136478000Y-104230000D02*
X135840000Y-104230000D01*
X136516000Y-104190000D02*
X135840000Y-104190000D01*
X136552000Y-104150000D02*
X135840000Y-104150000D01*
X136586000Y-104110000D02*
X135840000Y-104110000D01*
X136619000Y-104070000D02*
X135840000Y-104070000D01*
X136650000Y-104030000D02*
X135840000Y-104030000D01*
X136680000Y-103990000D02*
X135840000Y-103990000D01*
X136708000Y-103950000D02*
X135840000Y-103950000D01*
X136734000Y-103910000D02*
X135840000Y-103910000D01*
X136760000Y-103870000D02*
X135840000Y-103870000D01*
X136784000Y-103830000D02*
X135840000Y-103830000D01*
X136807000Y-103790000D02*
X135840000Y-103790000D01*
X136829000Y-103750000D02*
X135840000Y-103750000D01*
X136850000Y-103710000D02*
X135840000Y-103710000D01*
X136870000Y-103670000D02*
X135840000Y-103670000D01*
X136889000Y-103630000D02*
X135840000Y-103630000D01*
X136906000Y-103590000D02*
X135840000Y-103590000D01*
X136923000Y-103550000D02*
X135840000Y-103550000D01*
X136939000Y-103510000D02*
X135840000Y-103510000D01*
X136954000Y-103470000D02*
X135840000Y-103470000D01*
X136968000Y-103430000D02*
X135840000Y-103430000D01*
X136981000Y-103390000D02*
X135840000Y-103390000D01*
X136993000Y-103350000D02*
X135840000Y-103350000D01*
X137005000Y-103310000D02*
X135840000Y-103310000D01*
X137015000Y-103270000D02*
X135840000Y-103270000D01*
X137025000Y-103230000D02*
X135840000Y-103230000D01*
X137034000Y-103190000D02*
X135840000Y-103190000D01*
X137042000Y-103150000D02*
X135840000Y-103150000D01*
X137049000Y-103110000D02*
X135840000Y-103110000D01*
X137056000Y-103070000D02*
X135840000Y-103070000D01*
X137061000Y-103030000D02*
X135840000Y-103030000D01*
X137066000Y-102990000D02*
X135840000Y-102990000D01*
X137071000Y-102950000D02*
X135840000Y-102950000D01*
X137074000Y-102910000D02*
X135840000Y-102910000D01*
X137077000Y-102870000D02*
X135840000Y-102870000D01*
X137078000Y-102830000D02*
X135840000Y-102830000D01*
X137080000Y-102750000D02*
X135840000Y-102750000D01*
X137080000Y-102790000D02*
X135840000Y-102790000D01*
X137120000Y-102750000D02*
G75*
G02*
X132880000Y-102750000I-2120000J0D01*
G01*
X132880000Y-102750000D02*
G75*
G02*
X137120000Y-102750000I2120000J0D01*
G01*
%TO.C,C1*%
X150580000Y-103265000D02*
X150580000Y-101735000D01*
X152420000Y-101735000D02*
X152420000Y-103265000D01*
%TO.C,D1*%
X132930000Y-105530000D02*
X132930000Y-105860000D01*
X132930000Y-109470000D02*
X132930000Y-109140000D01*
X140495000Y-109470000D02*
X140495000Y-105530000D01*
X140615000Y-109470000D02*
X140615000Y-105530000D01*
X140735000Y-109470000D02*
X140735000Y-105530000D01*
X142070000Y-105530000D02*
X132930000Y-105530000D01*
X142070000Y-105860000D02*
X142070000Y-105530000D01*
X142070000Y-109140000D02*
X142070000Y-109470000D01*
X142070000Y-109470000D02*
X132930000Y-109470000D01*
%TO.C,J1*%
X150890000Y-95265000D02*
X151625000Y-95265000D01*
X150890000Y-96000000D02*
X150890000Y-95265000D01*
X152360000Y-95390000D02*
X152985000Y-95390000D01*
X152360000Y-96500000D02*
X152985000Y-96500000D01*
X152985000Y-95390000D02*
X152985000Y-97610000D01*
X152985000Y-96740000D02*
X154985000Y-96740000D01*
X152985000Y-97610000D02*
X152035030Y-97610000D01*
X154985000Y-96740000D02*
X154985000Y-97260000D01*
X154985000Y-97260000D02*
X152985000Y-97260000D01*
X152985000Y-95740000D02*
X154985000Y-95740000D01*
X154985000Y-96260000D01*
X152985000Y-96260000D01*
X152985000Y-95740000D01*
G36*
X152985000Y-95740000D02*
G01*
X154985000Y-95740000D01*
X154985000Y-96260000D01*
X152985000Y-96260000D01*
X152985000Y-95740000D01*
G37*
%TD*%
M02*
