%TF.GenerationSoftware,KiCad,Pcbnew,10.0.6*%
%TF.CreationDate,2026-09-18T19:39:31+05:30*%
%TF.ProjectId,voltage_doubler,766f6c74-6167-4655-9f64-6f75626c6572,rev?*%
%TF.SameCoordinates,Original*%
%TF.FileFunction,Legend,Bot*%
%TF.FilePolarity,Positive*%
%FSLAX46Y46*%
G04 Gerber Fmt 4.6, Leading zero omitted, Abs format (unit mm)*
G04 Created by KiCad (PCBNEW 10.0.6) date 2026-09-18 19:39:31*
%MOMM*%
%LPD*%
G01*
G04 APERTURE LIST*
%ADD10C,0.125000*%
G04 APERTURE END LIST*
D10*
X152322525Y-91857500D02*
X152251097Y-91895595D01*
X152251097Y-91895595D02*
X152132049Y-91895595D01*
X152132049Y-91895595D02*
X152084430Y-91857500D01*
X152084430Y-91857500D02*
X152060621Y-91819404D01*
X152060621Y-91819404D02*
X152036811Y-91743214D01*
X152036811Y-91743214D02*
X152036811Y-91667023D01*
X152036811Y-91667023D02*
X152060621Y-91590833D01*
X152060621Y-91590833D02*
X152084430Y-91552738D01*
X152084430Y-91552738D02*
X152132049Y-91514642D01*
X152132049Y-91514642D02*
X152227287Y-91476547D01*
X152227287Y-91476547D02*
X152274906Y-91438452D01*
X152274906Y-91438452D02*
X152298716Y-91400357D01*
X152298716Y-91400357D02*
X152322525Y-91324166D01*
X152322525Y-91324166D02*
X152322525Y-91247976D01*
X152322525Y-91247976D02*
X152298716Y-91171785D01*
X152298716Y-91171785D02*
X152274906Y-91133690D01*
X152274906Y-91133690D02*
X152227287Y-91095595D01*
X152227287Y-91095595D02*
X152108240Y-91095595D01*
X152108240Y-91095595D02*
X152036811Y-91133690D01*
X151822526Y-91895595D02*
X151822526Y-91362261D01*
X151822526Y-91514642D02*
X151798716Y-91438452D01*
X151798716Y-91438452D02*
X151774907Y-91400357D01*
X151774907Y-91400357D02*
X151727288Y-91362261D01*
X151727288Y-91362261D02*
X151679669Y-91362261D01*
X151298716Y-91362261D02*
X151298716Y-91895595D01*
X151513002Y-91362261D02*
X151513002Y-91781309D01*
X151513002Y-91781309D02*
X151489192Y-91857500D01*
X151489192Y-91857500D02*
X151441573Y-91895595D01*
X151441573Y-91895595D02*
X151370145Y-91895595D01*
X151370145Y-91895595D02*
X151322526Y-91857500D01*
X151322526Y-91857500D02*
X151298716Y-91819404D01*
X151084430Y-91857500D02*
X151036811Y-91895595D01*
X151036811Y-91895595D02*
X150941573Y-91895595D01*
X150941573Y-91895595D02*
X150893954Y-91857500D01*
X150893954Y-91857500D02*
X150870145Y-91781309D01*
X150870145Y-91781309D02*
X150870145Y-91743214D01*
X150870145Y-91743214D02*
X150893954Y-91667023D01*
X150893954Y-91667023D02*
X150941573Y-91628928D01*
X150941573Y-91628928D02*
X151013002Y-91628928D01*
X151013002Y-91628928D02*
X151060621Y-91590833D01*
X151060621Y-91590833D02*
X151084430Y-91514642D01*
X151084430Y-91514642D02*
X151084430Y-91476547D01*
X151084430Y-91476547D02*
X151060621Y-91400357D01*
X151060621Y-91400357D02*
X151013002Y-91362261D01*
X151013002Y-91362261D02*
X150941573Y-91362261D01*
X150941573Y-91362261D02*
X150893954Y-91400357D01*
X150655859Y-91895595D02*
X150655859Y-91095595D01*
X150441573Y-91895595D02*
X150441573Y-91476547D01*
X150441573Y-91476547D02*
X150465383Y-91400357D01*
X150465383Y-91400357D02*
X150513002Y-91362261D01*
X150513002Y-91362261D02*
X150584430Y-91362261D01*
X150584430Y-91362261D02*
X150632049Y-91400357D01*
X150632049Y-91400357D02*
X150655859Y-91438452D01*
X150274906Y-91362261D02*
X150084430Y-91362261D01*
X150203478Y-91095595D02*
X150203478Y-91781309D01*
X150203478Y-91781309D02*
X150179668Y-91857500D01*
X150179668Y-91857500D02*
X150132049Y-91895595D01*
X150132049Y-91895595D02*
X150084430Y-91895595D01*
X149917764Y-91895595D02*
X149917764Y-91362261D01*
X149917764Y-91095595D02*
X149941573Y-91133690D01*
X149941573Y-91133690D02*
X149917764Y-91171785D01*
X149917764Y-91171785D02*
X149893954Y-91133690D01*
X149893954Y-91133690D02*
X149917764Y-91095595D01*
X149917764Y-91095595D02*
X149917764Y-91171785D01*
X149298717Y-91895595D02*
X149298717Y-91095595D01*
X149298717Y-91095595D02*
X149179669Y-91095595D01*
X149179669Y-91095595D02*
X149108241Y-91133690D01*
X149108241Y-91133690D02*
X149060622Y-91209880D01*
X149060622Y-91209880D02*
X149036812Y-91286071D01*
X149036812Y-91286071D02*
X149013003Y-91438452D01*
X149013003Y-91438452D02*
X149013003Y-91552738D01*
X149013003Y-91552738D02*
X149036812Y-91705119D01*
X149036812Y-91705119D02*
X149060622Y-91781309D01*
X149060622Y-91781309D02*
X149108241Y-91857500D01*
X149108241Y-91857500D02*
X149179669Y-91895595D01*
X149179669Y-91895595D02*
X149298717Y-91895595D01*
M02*
